<?xml version="1.0" encoding="UTF-8"?>
<svg id="Layer_1" xmlns="http://www.w3.org/2000/svg" version="1.1" viewBox="0 0 2160 2160">
  <!-- Generator: Adobe Illustrator 30.3.0, SVG Export Plug-In . SVG Version: 2.1.3 Build 182)  -->
  <path d="M1516.2,1600.3h-2c0-9-3.7-16.9-9.5-24-5.8-7.1-7.7-16-4.6-24.8,4.4-12.4,9.6-24.1,16.1-35.5,4.7-8.2,10.5-15,16.5-22.2s3.9-9.7,3.9-14.8c0-11.3,6.2-19.9,16.7-24s15.1-5.9,15.3-10.6-6.1-4.2-12.1-4-14.9-3.4-18.6-10.5c-4.2-7.8-7.4-17-7.2-26.1s-.7-19.7-3.6-29.9-1.9-16.1,3.2-21.3c7.9-8.1,13.6-16.9,13.7-28.7l.4-24.7c.1-8,0-15.6,1.3-23.6,2.8-17.4-3.4-34.8-9.2-51.4-3.8-11-2.8-22,3.7-31.6,9.1-13.5,15.3-30.5,9.2-45.9-3-6.6-4.2-13.3-2.9-20.6,3.9-5.7,10.9-8.4,17.2-4.7h16.2c6.4,0,9.1-4,13.1-8.2l9.9-10.4c1.8-1.9,5.2-3,7.7-2.7,6.5.6,10.3,10.8,12.9,18.2,2.1,6,5,11.2,8.7,16.3,8.5,11.6,12,17.9,26.5,20.4,7.5,1.3,15.2,3.2,22.8,2.8l25-16c7.8-5,12.1-12.6,14.2-21.6,1.3-5.7,4.8-10.7,7.6-15.8l6.2-11.2,6.9-15.1c3.8-6.2,10-8.2,17-7.8,11.1.6,20.7,5.2,29.5,11.7s13.6,6.1,20,2.5l14.7-8.1c6.6-3.6,13.2-6.8,20.9-7.1,7.6-.4,14,3.4,20.8,6.3l8,3.4c.9.4,3.3-.6,4.1-1.2s1.1-3.4.4-4.1c-9.2-8.6-16.6-18.2-21.7-29.9-4.4-10-14.6-10.9-24.7-7.1l-16.6,6.2c-7.4,2.8-15.7-.2-21.4-5.2s-16.4-9.1-26.6-8.6c-4.3.2-9.2-1.4-13.5-2.2s-6.9-5.2-5.6-9.3c3.1-9.5,7.3-18.6,12.2-27.2s11.4-15.2,19.2-21.2c8-6.2,13.8-14.5,16.7-24.2l5.9-19.9c2.6-8.8,3.4-25.4-3.1-28.3-7.3-3.3-17.8,8.1-23.1,17.1l-12.4,21c-2.9,4.9-8.3,9.2-14.3,9.1s-12.8-4.5-17.3-9-6.4-10.7-6.2-17.4-1.1-9.4-2-13.8c-1.4-6.5-5.3-11.2-11.5-13.6-15.4-6.2-29.3-10.7-40.3,4.1s-9.8,20.9-5.4,34.9c4.4,14.3-.2,23.5,6,35.7,4.8,9.4,5.6,19.2,3.2,29.5s.6,13,1,19.4c.6,9.5,2.1,18.1,5.6,27,1.7,4.3-1.5,9-4.9,11.4-6,5.5-14.8,4.2-19.3-2.5-2.7-10.1-8.1-18.8-15.1-26.5s-5.9-19.6-11.1-30.6c-2.8-6-9.1-8.3-15.1-5.5s-13.6,7.8-19.6,12.9c-5.7,4.8-9.5,10.7-13.1,17.3-5.2,9.6-14,16.6-24.8,19.2-20.6,5-29.1,16-37.4,34.6-4.3,9.6-15.4,12.2-23.9,6.9s-5.6-5.4-3.3-9.8c3.3-6.2,5.1-12.8,5.8-20l1.1-12.3c.5-5.6,3.6-10.3,8.4-13l12.6-7.2,23.3-12.3c11.5-5.2,19.8-14.4,24.9-25.8l10.8-24c2.4-5.3,2.1-12.9-2.1-17-4.1-4.1-10.6-4.7-16.1-4.4-27,1.4-35.9-14-44.8-17.4l-13.4-5c-11.3-5.6-21.8-12.2-32.1-19.3s-11.9-5.1-18.8-2.8l-58.6,19.5c-9.3,3.1-17.8,6.3-27.4,8.3-7.8,1.7-13.2,7.4-16.2,14.8l-9.2,22.7c-5.5,10.8-12.7,20.2-23,26.4l-20.9,12.5c-9.5,5.7-18.8,10.9-27.2,18.3s-5,5.2-8.1,4.1c-13.7-4.6-6.4-31.9.5-42.8l22.2-34.7,9.5-14.1c5-8.8,3.8-20-3.9-26.6s-13.7-6-20-2.5l-16.6,9.1c-8.6,5.6-14.9,13.2-19.1,22.6-3,6.7-9.8,9.6-17,7.8l-37-9.3-19.8-5.3c-1.4-.4-3.2-1.9-3.6-3.1-1.1-3,2.1-6.8,5.7-7.9,8.5-2.5,16.5-4.2,25.2-5.2s10.5-2,15-4.5c13.6-7.6,4.6-21.9-2.7-34.1-8.8-14.7-2.3-28.2,6.6-41.6s15.2-14,25.3-10.8l10.9,3.5c14,4.5,28.7,1.7,31.4-11.7,2.6-13.1,5.1-26.5,4.3-40.1-.8-13.8-.5-26.4,5.3-39.2l5.5-11.9c6.4-13.9,9.3-29.6-4.9-36.5l-11.8-5.7c-21.2-12-44.2-18.6-68.7-20.1-4.7-.3-8.9-2.9-12.8-5.3-10.3-6.3-22.2-7-32.9-1.4s-16.1,5.4-25,5.5c-9.1.1-16.7-3.9-21.4-11.5s-6.4-18.7-2.1-28l10.4-22.3c4.1-8.9,4.2-19.1,3.1-28.7l-2.8-25.1c0-.5,0-1.8,0-2.2s1.5,0,1.6.3l.4,1.4c2.4,12.3,3.3,24.5,3.3,37,0,20.4-12.8,30.4-15.9,47.9-2.1,11.9,4.4,24.9,16.2,28,10.9,2.8,22.3,0,32-4.7,22.4-10.8,35.9,5.5,44.9,6.7l24.2,3.2c13.6,2.7,26,7.1,38.5,13.3l20.8,10.3c14.9,7.4,11.2,26.2,3.8,40.9s-7.1,15.8-8.9,24.5-.9,13.5-.8,20.4v11.4c0,10.4-1.7,20.4-3.6,30.5-1.1,5.8-4.3,11.3-9.4,14.1-7.4,4-16,3.7-24,1.4l-13.9-4.2c-8.2-1.4-15.5,2.2-20,8.7-10.1,14.3-16.3,28.1-6,43.6,3.1,4.7,5.6,9.9,7.6,15.1,2.4,6.2.5,13.1-4.7,17.2-4.7,3.7-10.5,5.7-16.5,6.4-9.9,1.2-19.2,3.1-28.6,6.1s-3.4,4.2-1.9,5.4l38.4,10.1,20.3,5.4c6.1,1.6,11.7-1.4,14.1-6.8,3.6-8.1,8.9-15.1,16-20.5,7.2-5.4,14.9-9.9,23.4-13.1s16.8,0,22.3,6.6c6.6,8,6.9,19.3.9,28l-16.1,23.3c-6.5,9.4-12.4,18.7-17.2,29-6.3,13.5-8.4,33.9.9,34.4s4.4-2.5,6-3.9c8.9-7.6,18.8-13,28.8-19.1l21.2-12.9c9.6-7,17.3-15.8,21.7-26.9l8.2-20.7c3.2-8.1,9.8-13.1,18-15.5l20.7-5.9,64.6-21.8c8-2.7,14.6-1.1,21.3,3.7,10,7,20.3,13.2,31.2,18.8l10,3.6c5.1,1.9,9.2,4.5,13.3,7.9,9.3,7.7,20.9,11.1,33,10.3,11.3-.7,21,2.8,22.6,14,.8,5.6-1.3,10.5-3.6,15.6l-9,19.7c-6.6,14.4-17.8,23.2-31.8,29.4l-32.5,18.2c-2.3,1.3-4.1,6.6-4.3,9.1l-1.5,15.2c-1.4,13.9-7.6,18.7-6.3,22.3s8.8,6.6,15.9,4.5,6.7-4.1,8.3-8.1c4-10.3,10-19.2,18.6-26.2s13-7.3,20.4-9.2c11.1-2.9,19.3-10.4,24.2-20.4s11.1-15.1,18.9-20.7c10.1-7.3,22.1-14.7,29.9-3.9,7.7,10.7,2.3,21.9,12.2,32.5s12.5,16.6,15.7,26.9,5.7,4.6,8.3,4.7c5.8.4,14.1-6.5,11.3-13.2-3.3-8.2-4.6-16.4-5.3-25.3s-2.3-14-1-21.1,2.2-16.5-1.5-24c-4.4-8.9-6.1-17.7-5.7-27.9s-12.9-29.8,4.5-50.1c12.6-14.6,26.5-10.2,42.8-3.3,6.4,2.7,10.5,7.5,11.9,14.3s2.5,9.9,2.3,14.8,1.3,11.8,5.9,16.3c3.6,3.5,8,6.9,13.2,7.9s10.6-1.8,13.3-6.2l14.5-24.1c5.6-9.4,17.1-20.6,25.3-16.5,7.8,3.9,7.1,21.1,4.3,30.1l-7.4,24.3c-3.3,10.9-11.6,18.4-20.4,25.2-12.7,9.8-20.8,28.1-26.2,43.4-.5,1.3.5,4.3,1.4,5.3s3.3,1.6,5,2l10.3,1.8c11-1.5,21,2.2,29.2,9.6s14,6,21.5,3.2l15.4-5.9c8.8-3.4,20.6-1.7,24.6,7.3s11.8,21.5,21.1,29.7c2.2,2,2.7,5.7,1.1,7.9s-4.9,3.5-7.4,2.4l-15-7.1c-9.7-4.6-20.8-2.2-30.1,3l-18.1,10c-7.2,3.1-14.8,1.6-21.1-3-8.3-6-17.2-10.4-27.7-11.6s-16.6,5.4-20,15.4c-2.3,6.8-5.4,12.8-9.5,18.7-8.6,12.3-6.6,23.7-17.1,33.1-8.1,7.3-17.1,12.7-26.4,18.5s-5.5,2.8-8.2,2.3l-26.5-4.8c-5.5-1-10.3-5.4-13.6-9.9l-11.2-15.4c-5.8-8-6.3-20.8-14-27s-5.6-1.1-7.4.5c-3.6,3.4-8,7-10.6,11-4.2,6.3-9.2,9-16.7,9.1s-13.3,0-20.2-1.7-7.8,2.1-8.7,4.5c-4.1,10.5,6.6,22.4,5.2,35.8-1.2,11.5-5.8,21.7-12,31.2-5.4,8.3-7.2,18-4.1,27.7l4.8,14.8c2.7,8.3,5.4,16.8,5.4,25.7v9.2s-1.6,15.9-1.6,15.9l-.3,35.5c0,10.3-3.9,20.4-11,27.6s-6.2,6.5-6.8,11.5c-.7,5.4,0,11,1.6,16.2s1.7,12,2.2,18.5l1.2,15.6c.4,5.2,3,10.3,5.1,15.1,3,7,9.5,11.1,17,11.5l9.8.5c1.8,0,4.8,2.7,5.2,4.3,1.8,6.5-10.5,11.5-18,14.5-9,3.6-13.7,11.3-14,20.9s-.3,11.7-3.9,15.9c-7,8.4-13.7,16.2-18.8,26-5.6,10.9-10.6,21.7-14.3,33.3s-.2,15.3,4.7,21.5,10.3,15.8,9.7,25.1Z"/>
  <path d="M870.7,1600.3h-2.9s6.7-13.3,6.7-13.3c3.2-6.8,10.6-9.4,17.8-7.8l13.8,2.9c6.1,1.3,11.2-3.2,13.1-9,3.7-11.7-2.1-23.9,5.7-39.1,1-2,3.6-4.4,5.9-4.6l13.4-1.3,12.7-.6c6.5-.3,10.4,2.3,14.4,6.5s7.2,5.2,10.5,7.3,8.3,1.1,10.8-2.3,3.7-9.9,1.8-15.5l-3.8-11.4c-4.4-9.1-5.7-18.8-2.7-28.6,5.1-16.2-7.7-30.1-20.3-40.3s-11.6-10.6-16.1-17.2c-6.3-9.2-8-19.4-8.6-30.5l-1.1-20.5,2.7-18.3c1.2-7.7,0-15.2-2-22.8l-7.6-27.9c-2.1-7.5-4-14.5-9.1-20.6l-16-18.8c-6.2-7.3-13.5-13.3-22-17.4s-9.2-1.9-13.1,1.8c-7.5,7-13.9,16.1-15.5,26.6s-7.5,20-16,27.5l-13.7,12.1c-2.8,2.5-7,5.6-10.4,2.1-5.6-5.8-7.5-14.5-7.2-22.5l.6-13.7-.3-22.9c-1.1-11.1-6.2-20.7-15.1-27.3l-12.6-7.8c-6.6-4.1-15.1-2.4-20.9,2.6-6.3,5.4-9.1,12.9-9.1,21.3,0,9-2.6,22.4-7.2,20.4l-9.8-4.3c-8.4-4.8-15.5-11-22.4-17.7s-22-9.4-31.3-.7c-6.9,6.4-11.8,14.8-14.3,24.1l-5.6,20.1c-1.8,6.4-8.3,10.3-14.7,8-12.2-4.4-24.5-3.3-35.9,3.2l-25.1,16.5c-7.3,4.8-15.3,6.2-23.5,3.4s-8.1,0-10.4,3.1l-18.9,26.5c-14,19.6-7.4,51-1.9,73.7s3.4,20.1,4.2,30.9c1.4,20.9,10,40.1,23.3,56.1,4.6,5.5,7.8,10.8,7.9,18.3s5.6,24.8,10.6,25.9l17.7,3.7c4.6,1,9.3,2,14,1.6,16-1.3,12-21.7,11.2-38.8l-1-19.8c-.3-5.5-1-10.3-3.6-15.1-5.2-9.6-7.3-22.7.7-25.3,3.6-1.2,8.1-.3,11.7.5,7,1.7,13-1.3,16.1-7.7s2.9-5,3-7.3l1.9-27.7c-.2-12.3-5.4-22.4-14.2-30.5-3.5-3.3-6-8.6-4.5-13.4,2.2-7.2,8-13.5,14.8-16.1,8.1-3.1,16.5-.8,21.3,6.5,6.2,9.4,12.4,18.4,20,26.9s6.3,8.8,7.8,14.3c2.4,9.5,4.9,18.6,8.7,27.7,6.5,15.4,21.3,41.7,37.1,31.4,10.3-6.8,19.8-14.3,28.2-23.2s13.4-18.4,16.6-29.8c6.5-23.1,18.9-29,27.5-43.1l11.8-19.4c1.1-1.8,3.4-3.7,5-4.1s5.2.3,6.9,1.4c6.8,4.4,13.7,7.1,21.7,8.7l23.5,4.7c6.7,1.3,13.5,7.9,13.5,15l.5,46c0,6.5,4.1,11.9,9.6,14.6,5.9,2.9,10.8,6.7,14.4,12.3,8.8,13.7,10.2,31,4.2,45.9-3.4,8.5-10.1,13.1-19.3,13-14.4-.3-27.9,5.6-38.9,15-7,6-15.4,7.6-23.6,2.8s-14.9-4.7-23.1-2.3c-4.1,1.2-9.4.2-13.8-.9-13.8-3.7-28.7,3.7-31.5,18.3s6.6,27-5.9,35.2c-5.1,3.4-11.6,2.7-17.1.3-9.6-4.3-20.5-7.7-24.7,1.9-3,6.8-3.1,13.9-2,20.9h-2.6s.3-8.4.3-8.4c0-4.9.5-9.8,2.7-14.1,5.5-11.1,18-6.4,28.6-1.8,4.9,2.1,10.3,2,14.4-1.1,9.9-7.5,2.4-21.4,4-32.2,2.4-16.1,19.1-25.4,34.3-21.1,4.1,1.1,9.3,1.9,13.1.9,8.7-2.4,16.8-1.8,24.6,2.7s14.5,3,20.5-2.2c11-9.3,24.6-16.1,39.3-15.8,9.1.2,15.8-3.6,19.1-12.5,4.8-12.8,3.9-27.5-2.5-39.8-3.6-7.1-9-11.8-16.2-15.2-5.5-2.6-10.1-9-10.1-15.6l-.3-43.8c0-11.1-9.2-15.9-19.9-17.8l-18.1-3.2c-13.9-2.4-23.7-13.3-26.9-8.5l-7.6,11.4c-4.5,6.8-8,14.4-13.8,20.3-9.3,9.6-16.3,20.2-19.8,33.3-6.4,23.6-23,36.7-41.7,50.9-8.1,6.2-18.1,6.5-25.7-1.2-9.5-9.8-16.9-21.9-20.8-35.2l-6.9-23.5c-1.3-4.4-3.7-8-6.7-11.5-7.7-9-14.3-18-20.6-28.1-1.4-2.3-4.8-4.6-7.2-5.3-9-2.7-16.7,1.9-21.6,9-4.3,6.1-4.1,13,1.8,18.4,8.6,7.8,13.7,18,14.1,29.9l-1.1,23.2c-.3,5.8-1.9,11-4.9,15.7-3.8,6.1-9.8,8.5-17.1,7.4l-8.8-1.3c-2.2-.3-5.3,1.9-5.6,4-2.4,12.6,7,21,7.5,29.5l1.4,26.7.5,25.4c-.6,8.2-6.7,14.1-15,14.4-3.6.1-7.5-.6-11-1.3l-20.5-4c-7.3-4.2-11.7-17.4-11.8-26s-2.9-13.7-7.8-19.5c-14.1-16.8-22.9-37.3-23.9-59.4-1.2-25.2-10-45.8-10-63.8v-12.2c0-11.5,4.2-22.4,10.9-31.6l16.3-22.4c3-4.1,8-5.6,12.9-4.1,7.4,2.2,14.8,1.5,21.3-2.8l19.9-13.4c4.9-3.3,10.3-5.7,15.9-7.6,8.7-2.9,17.5-2.4,26,.7,5.7,2.1,11.5,0,13.2-6.2l4.2-15.3c2.5-9.2,6.3-17.1,11.7-24.8,8.1-11.3,23.5-15.7,35.2-7.2l12.9,11.2c6.9,5.9,14.2,11,23.3,13.2,2.5-6.4,3.1-12.7,3.2-19.2.2-11.2,5.9-21.1,16-25.8,6.2-2.9,12.6-1.8,18.3,1.2,14.5,7.7,24.8,16.3,27.6,33.4,4.2,25.3-5.6,43.4,5.1,59.3.7,1.1,2.8,2.5,3.9,2.4s2.9-1.1,3.8-1.9l12.8-11.6c6.9-6.2,14.3-12.8,16-22.5,2.4-14.1,8.7-26.6,20.4-35.3,3.1-2.3,7.2-2.6,10.9-1.1,9.4,4,17.2,10.2,23.8,17.9l16.4,19.1c5.7,6.7,8,14.2,10.2,22.6l7.6,27.8c2.1,7.5,3.4,15,2,22.6s-3,14.2-2.7,21.5l.9,19.8c.7,14.9,6.7,28.2,17.8,38.1l13.3,11.8c9.8,8.7,18.3,23.1,14.2,35.7s-2,18.2,2,27.1l5.2,16.8c2,6.5-2.2,13.9-8.2,16.8-4.1,2-8.1-.4-11.4-2.5s-6.4-3.8-8.7-6.4-6.7-5.6-11.5-5.3l-23.9,1.3c-3.8.2-6.5,2.5-7.9,5.7-6.3,14.3-.6,26.9-4.8,37.6-3,7.6-10.5,11.6-18.3,9.8l-11.8-2.8c-6-1.4-12,1.2-14.7,6.9l-5.7,12.2Z"/>
  <path d="M1477.6,1600.3h-2c0-10.9.3-21.6,3.7-32.5-2.2-3-5.2-5-8.9-5.9-9.7-2.3-19.8-4-29.9-4-7.1,0-13.2-.8-19.5-4.2-14.1-7.6-18.4-20.1-12.1-35,4.3-10.2,10-19.7,17.8-27.8l24.2-24.9c6.5-6.7,6.4-15.7,1.4-23.5l-16-24.9c-2-3.1-6-3.4-9.3-2.1-9.7,3.9-18.9,8.7-29.3,10.8-4.4.9-8.9.4-12.6,3.6-1.8,1.5-3.1,5.3-3.1,7.9l-.3,18.8c-.1,6.6-2.9,13-7.5,17.5s-7.6,3.6-12,3.4c-9.5-.4-18-7.7-17.4-17.6l1.7-27.7c.8-12.6,2.4-24.5,4.9-36.8s-1.7-12.4-7.1-15.5-13.5-7.8-19-13.7-9.2-11-12.9-17.4l-9.4-16.4c-1.1-1.9-3.1-3.5-5.3-4.9-2.5,3.4-3.5,6.7-4,10.6l-2.2,16.1c-.9,6.7-4.4,12.8-9.5,17.2s-8.3,3.1-12.5,1.5c-15.9-5.9-19.1-19.8-22.2-35.6s-6.6-23.8-11.9-22.6-2.8,2.8-2.9,4.4c-.2,17.7,2.1,34.6,4.6,52.1,2.2,15.2-5,31.3,6.8,40.9l9.2,7.4c6.2,5,12.8,8.7,17.6,15.1,4.3,5.7,6.5,14.2,2.3,20.6-8.3,12.6-20.1,22.2-33.7,28.5-17,7.9-34.7-1.8-41.9-17.7l-7.8-17.4c-.8-1.8-3.8-4.7-5.7-4.4-3.8.7-5.1,5.3-4.4,8.7,2.6,13.4,6.5,25.9,11.2,38.7l10,27.4c1.1,2.9.9,7.1-.8,9.5s-4.7,3.9-7.8,4.1l-11.4,1c-16.3,1.4-29.9,4.6-44.8-7.6s-12.1-9.7-19-13.6-10.8-2.7-14.2.8c-4.3,4.5-7.1,11-7.5,17.3s-.3,13.6-3.5,19.7c-3.6,6.8-12.9,8.8-19.9,5.5-12.1-5.7-17.1-23.2-19.8-37s-.4-12-.1-18.2c.4-11.4-2.9-22.8-9.3-32.3s-8.3-16.4-7.8-26.6-3.5-22.5-7.1-23.3-3,.6-3.5,1.4c-5.3,7.4-2,23.7,1.1,34.2s5.2,19.4,5.4,29.6l.2,12.1,2.5,32.1c1.5,19.4-5.3,27.3-6.6,40.7s3.3,9.4,8.3,10.7c8.1,2.1,14.8,7,20.8,12.6l8.6,8.7h-3.4s-6.7-7.2-6.7-7.2c-6.4-6.2-13.6-10.4-22-12.8-6.4-1.8-9.1-8.5-7.7-14.4l3.2-12.9c2.2-8.6,3.8-16.7,3.2-25.7l-2.2-34.8c.3-13-1.9-25.2-5.6-37.6-3.4-11.4-6.9-26.6-1.2-36s4-3.1,5.6-2.9c5.9.8,9.7,18.3,9.4,26.4s2,16.8,7.2,24.2c8.4,12.2,11.2,26.6,9.5,41.2-.9,7.4,1.3,14.3,3.2,21.3,3.4,12.1,9.2,25.9,22.1,25.9,12.9,0,13.3-12,13.9-23.8s3.6-15.3,9.1-20.1c4.7-4.1,12.8-3.2,17.5.2l20.7,15.1c7.1,5.2,15.9,7.4,24.7,6.5l22.8-2.3c3.5-.4,7.7.5,10.3-2.8s1.5-6,.6-8.3l-13.5-37.3c-3.6-9.8-5.9-19.5-7.7-29.8s2.4-10.5,7.2-10.5c3.8,0,6.4,4.2,7.8,7.2l6.2,13.6c2.4,5.3,5.6,10.5,9.9,14.2,9.1,7.9,20.9,9.4,31.6,4.1,12.3-6.1,22.8-14.7,30.7-26,3.1-4.5,3.2-10.3.6-15.2s-7.9-10.1-13.1-14.1l-15.8-12.2c-12.6-11.6-5.6-24.3-7.7-43.4l-4.4-40.5c-.8-7.5-.5-16.4,4.8-17.2,6.4-1,11.8,12.2,13.6,21.2,3.3,15.8,6,32.8,22.9,37.6,4.6,1.3,8.2-.2,11.1-3.7,4.9-5.7,6.6-12.9,7.6-20.4l1.6-12.8c.4-3.4,2.8-7.1,5.8-8.7,1.6,0,4.4,1.8,5.2,3.1l8.4,13.8c4.3,7.1,8.3,14.1,13.7,20.5,13.8,16.2,31.3,13.3,28.4,34.2l-4.4,31.3-1.9,33.8c-.4,7.3,7.1,11.9,13.3,13,7.1,1.2,13-1.3,16.1-7.8,2.5-5.2,3.1-11.3,3.1-17.3l.2-13.4c0-5.9,4.6-10.7,10.6-11.5,7.4-.9,14.2-2.5,21.1-5.4l14.9-6.3c5.9-2.5,10.2.6,13.3,5.4l14.7,23c5.9,9.2,4.5,19.2-3,26.9l-22.5,23c-7.6,7.8-13.2,17.1-17.7,26.9s-3.5,12.3-2.2,18.2,6.7,11.5,12.6,14.7,11.5,4.1,18.1,4.1c12.6,0,43.2,3.4,41.4,12.6-1.6,8.3-2.7,15.9-2.8,24.4l-.6,7.6Z"/>
  <path d="M345.6,1466.2c-.6-1.9-.3-4.5.8-6.6l12.8-25.9c4.6-9.4,9.8-18,16-26.5,11.7-16,24.2-30.5,37.4-45.2l27.3-30.4,15-14.7,18.3-18c5.8-6.9,8.9-15.8,6.4-24.5s-1.4-22.4,6.2-31.4c9.9-11.6,23.2-18.9,38-22.6,8.9-2.2,21.7-9.9,21.4-14.2s-1.5-1.9-2.2-1.9l-7,.3c-10,1.7-19.4,2.2-29.4,1.6l-17.2-1.1c-7.4-.5-14.5.5-21.2,3.7l-20.4,9.8c-14.3,6.9-32.6-1.9-39.9-16.6s-2.7-8.4-.8-11.8c8.5-14.8,19.8-30.5,34.1-39.5,8.9-5.7,17.9-10.6,25.8-17.4l10.6-9.1c6.4-5.5,14-8.2,22.4-9,6.8-.6,13.2-2.6,19.7-4.4,17.5-4.8,32.7.4,42,15.8,3.6,5.9,6.2,12.3,7.5,19.1l4.3,24.3c2.3,13-12.4,24.6-12,29.1s16.6,9.4,23.5,9.2c13.9-.3,24-11.7,26.4-24.8s7.4-21.2,17.2-29,14-5.5,21.7-2.9c9.5,3.2,19.3,6.1,29.6,5.9,11.4-.3,22.5-2.8,33.2-5.8,4.5-1.3,6.9-5,5.7-9.5-1.7-6.8-8.2-14.1-15.8-12.6l-22.5,4.6c-7,1.4-13.4,3.4-20.1,5.7l-21.5,7.4c-12.3,3-25.6-2.7-30.3-14.7s-1.5-11.2.2-16.3l9.4-29.3c1.7-5.4,4.2-10.7,8.9-14,6.3-4.4,13.9-5.7,21.5-6s15.8-1.4,23.9-3.2c19.3-4.2,31.9.5,50.3,5.5,5.2-.8,10.5-5.8,12.5-10.8,4.7-11.6,5.5-23.5,5.3-35.9s1.7-21.1,5.5-30.9,9.2-15.3,15.5-21.7,17.2-15.1,28.5-18.6c16.6-5.1,34.4-4.1,50.5,2.2,11.1,4.4,25.2,11.8,34.5,6.9,14.2-7.6,22.2-24.6,48.7-26.5,4.8-.3,9.8-1.5,14-3.2,8.2-3.3-1.2-13.1-3-27.3s-1.5-13-4.6-18.9-10.7-13.9-18.3-18.8l-32.7-21.2c-12.2-7.9-22.8-17.4-32.4-28.3-13.9-15.6-19.3-35.7-22.3-56.1s-.6-13.1,1.6-19.3l12-34.1c2.8-7.9,7.7-14.3,13.8-19.7,11.7-10.5,12.1-22.9,7.6-37.6-3.9-12.6-7.6-25.2-9.3-38.3s-5.6-21.4-12.9-30.5c-9-11.3-17.1-22.8-25.1-34.8-3.2-4.8-5.5-9.9-7.7-15.3.3-.5,2.3,0,2.7.7l7,13.6c9.2,13.9,18.9,26.7,28.9,40,4.6,6.2,7.3,13.6,8.5,21.3,2.4,15.4,5.9,29.9,10.7,44.7s2.8,27.4-8.3,37.4-10.6,11.1-13.3,18.6l-8.2,22.9c-2.7,7.6-6.1,15.2-5.8,23.6.4,12.6,3.2,24.8,7.4,36.5,4.6,13,12.3,23.7,22.3,33.1s25.4,21,39.6,30.1l22.2,14.2c12.1,7.7,18.2,20.4,19,34.6s12.7,25.7,2.5,30.7c-4,1.9-9,3.3-13.7,3.6-27.1,1.7-34.1,17.4-48.5,25.8s-12.1,3.4-17.8,1.2l-17.1-6.5c-28.8-10.9-56.7-8.5-78.4,14.1-7.4,7.8-14.4,15.7-17.4,26.4-3.2,11.7-4.4,23.7-4.2,36s-1.6,18.7-5.5,27.3-6.8,8.5-11.4,10.5-6.8-.5-9.7-1.4c-7.5-2.3-15-4-22.9-5s-14.9.8-22.2,1.8l-17.3,2.4c-13.3,1.9-27.2,0-32.8,18l-10.2,32.9c-2.4,7.8.3,15.6,6.5,20.5,17.5,13.9,36.1-2.7,58.8-7.4l26.4-5.4c10.7-2.2,20.7,8.9,18.8,19.4s-4.4,6.2-7.6,7.1c-9.7,2.7-19.4,4.6-29.5,5.5l-10.6-.2c-19.2-.3-29.3-15.4-46.3-.7-7.1,6.1-11.2,14.6-12.9,24.1-2.4,13.5-11.5,25.5-25.8,27.5-7.9,1.1-15.3-2.2-22.5-4.9-3.2-1.2-6.6-3.4-6.2-7.4s14.6-15.5,11.7-30.3l-4.3-22.1c-4-20.8-19.5-38.2-41.8-33.7-8,1.6-15.7,4.6-23.9,5.3-10.2.9-18.7,4.8-26.2,12-8,7.7-16.9,14-26.6,19.6-8.4,4.8-15.5,10.3-21.9,17.6l-15.1,20.6c-7.4,10.2,1.2,21.5,11.1,27.7,8.6,5.3,18.3,5,27.2.7l17.5-8.5c5-2.4,10.8-4.3,16.5-4l30.7,1.3c7.6.3,14.8-.7,22.3-2,5.5-1,10.4.6,10.7,3.9.5,6.2-13.8,14.2-22.3,16.4-14.5,3.7-27.9,10.6-37.6,22.3s-8.6,17.2-6,26.6c5.3,19.1-5.9,29.4-18.5,41.5l-22.1,21.1-26.2,29.2c-13.8,15.4-26.9,30.6-39.1,47.4s-11,17.4-15.7,26.8l-14.3,28.9Z"/>
  <path d="M1070.1,1285.9c-3.1-3.3-6.8-2.2-9.7-.4-12.1,7.5-20.2,18.3-24.6,31.7-5.1,15.1-22,32.1-38,24.6-19.3-9-26.6-26.2-25.2-47.3.7-10.9.2-21.1-1.3-31.8-1.4-10.3,1.6-20.5,9.1-27.4l12.6-11.6c9.6-6.5,16-14.4,19.8-25.3,3.8-11.1,10.8-20.4,18.2-29.5,12.9-15.9,13.8-38.3,1.8-55-2.6-3.7-7.5-5.2-11.4-6.6l-28.4-10.3c-10.7-3.9-21.4-3.7-31.4,1.8l-26.4,14.6c-8,4.4-16.1,6-24.9,2.5s-7.7-4.9-8.5-9.9.5-11,3.2-16c7.2-13.2,18.6-22.2,31.9-29,13.8-7,27.9-12.5,43.6-13,9.3-.3,18.7,1.5,25.6,7.7s11.6,10.8,18.7,14.5c8.2,4.2,20.4-5,22-15.2s.1-19.4-2.5-28.5.7-3.7,1-4.8c0-5.1.9-10.5,5.3-14s11.6-5.8,17.9-5.4,9.2-2.6,12.6-6.6l10.9-12.5c6.6-7.6,15.3-11.2,25.2-11.6,13.4-.5,29.5-11,56.6-9.4,16.2.9,36.8,2.2,38.8,19.7,1.5,13.4-4.5,26.9,0,42.4-.1,12.5-5.9,22.6-15.6,29.8l-12.2,9c-4.5,3.3-6.1,8.6-3.2,13.7l13.8,24.6c10.2,18.2,9,38.5-2.6,55.5-5.5,8.1-6.7,18.3-7.5,28l-4.2,51.8c-1,12.1.8,23,3.3,34.5,2,8.9,2.3,18.8-2.1,27l-15.3,27.8c-2.7,5-7.5,7.9-13.1,6.1l-9-4c-4.9-2.2-11.6-3.1-15.3,1.6-3.8,4.9-6,11.1-7.8,17.1s-6,13.7-10.7,19.6c-6.6,8.4-7.7,18.5-3.9,28.3,3.4,8.9,2.6,23.6,6.7,40.2.9,3.8-1.3,8-5.1,9.1-10.3,3.1-22.7,1-22-7.9,2.5-28.7-21.2-33.2-9.1-50.7l5.8-8.4c3.2-4.6,1.9-10.2-1.2-14.5l-6.3-8.8c-6.2-8.6-6.9-19.3-3.1-29.2,2.1-5.4,4.1-10.6,4.9-16.4,1-8.2-2-16.4-7.7-22.4ZM1071.6,1284.3c9.1,9.3,10.9,22.4,6,34.3s-6.5,26.1,4.8,40.3c8.2,10.2,6.2,16.5-2,26.8s-4.9,12.6-.3,18.8c6.7,9.1,10.3,19.6,9.1,31-.3,3.2,1.8,6.6,5,7.1s8.9.5,13.1-.3,5.2-3.9,4.5-7.6l-3.4-19.4c-1.1-6.4-.6-13.5-3-19.6-4.3-10.8-3.2-21.7,4.3-30.9,10.2-12.4,9.8-21.5,15.9-33.1,3.9-7.2,11.5-9.6,19.1-6.2l9.8,4.4c4.4,2,8.6-1,10.7-4.9l12.4-22.5c3.8-6.9,7.1-13.9,5.9-21.9l-1.9-12.7c-2.4-10.3-3.6-20.5-2.7-31.2l4-50.2c.7-8.7,1.9-17.3,5.2-25.3l4.6-8.4c9.1-14.1,10.1-30.8,2.9-46.2l-9.2-16.5-7.4-14.6c-2.1-4.2-.9-9.6,2.9-12.5l13.3-10.2c9.6-7.3,15.8-17.1,15.2-29.4-1.3-5.6-2-11.6-1.4-17.5l1.9-19.6c.5-5.1-1.7-10.8-5.2-14.1-4.5-4.3-10.4-5.4-16.5-6.4-17.5-2.7-35-2.2-51.9,3.4-8.2,2.7-16,4.4-24.7,5.1s-13.8,4.5-18.6,9.9l-12.5,14.1c-3.4,3.9-7.4,6.3-13,6.1s-12.9,1.4-17.6,5.9-3,7.9-3.4,12.1c-.3,1.1-1,3.5-.7,4.5,2.7,10.1,4.1,20.2,1.7,30.3-1.4,5.9-6,10.2-10.8,13.4-10.5,7.3-21-2.4-30.2-11.2-5.8-5.6-12.8-8.7-21-9.3-10.5-.7-20.8,1-30.7,4.7-21,7.9-42.5,19.2-50.9,40.6-1.9,4.8-2.2,11.8,1.8,15.3,7,6.2,18,5.5,25.8,1.2l27.5-15.2c11.5-6.3,23.5-6.1,35.7-1.5l31.1,11.5c6.9,2.5,10.8,9.1,13.3,15.6,6.1,16.2,3.7,33.3-7,47-7.1,9.1-14.3,18.2-18.2,29.4s-11.4,20.4-21.6,27.1l-10,9.1c-7.4,6.7-11.1,16.3-9.9,26.6,1.3,10.2,2.2,20,1.5,30.5-1.4,20,2.4,34.7,19.8,45.6,7,4.4,15.4,4.9,22.4,0,8.9-6.1,14.6-14.9,18-25.1s13.1-22,24-29.2c4-2.7,8.5-3.2,12.4.8Z"/>
  <path d="M1679.6,568.4c4.9-13.9-4.1-26.3-14.1-37.6.8-.6,2.8-.3,3.7.7,5.4,6.5,9.8,12.9,12.8,20.7,2.4,6.3,1.6,12.3-.7,18.6-3.2,8.8-4.8,18.5-1,27.2,3.2,7.4,4,15.4-1.2,22.2-9.4,12.4-21,22.9-34.9,30.2-5.9,3.1-11.2,6.9-12.9,13.7l-3.4,13.4c-.8,3.1,1.4,6.3,4.5,7.1,8.3,2.1,15.7,5.5,22.8,10.6,11.1,8,22.4,15.1,35.8,18.6,2.8.7,7.5.1,9.3-1.9,5.8-6.5,12-11.6,20.4-14l17.1-4.9c11.2-3.2,22.2-3.4,33.3.8l11.9,4.5,14.6,5.2c4.5,1.6,8.4,4.6,9.9,9.2s0,7-2.8,9.5c-8.6,7.5-14.3,16.9-17.9,27.6s-4.7,8-8.6,9.6l-9.8,3.9c-8.1,3.2-16.9,2.5-24.6-2l-12.3-9c-6.4-4.7-14.3-7.5-21.7-3.5-6.7,3.7-7.2,17.9-13.7,29.2-5,8.6-14.2,10.9-22.6,6.5s-20.7-7.2-31.9-7.2-12.1-4.3-13.4-10.7-.1-9.2,1.5-13.5l5.7-14.9c1.8-4.8,2-10.9-.3-15.5-5-9.8-9.3-19.1-12.2-29.7-.7-2.5-3.4-4.8-6.1-5.1l-19.2-1.5c-3.5-.3-7.3.5-9.5,3.6s-3,6.6-3.1,10.2c-.1,15.1-3.5,25.7-18.8,28.7l-24,4.7c-6.9,1.4-13.7.9-20.2-1.7s-15.9-2.2-22.6,3-12.5,11.1-18.2,17.4l-9,10c-4.7,5.2-10.2,8.6-17.4,9.5-15.2,1.9-36.1-5.4-36.7-20.7,4.7-10.4,11.4-19.5,18.9-27.7s12.1-9.9,20.3-11.8c10.7-2.5,20.2-6.6,29.9-11.7,6.8-3.6,18.3,2.8,22.9-6.9,5.7-12.1,3.7-23.6,7.4-36.4s10.7-17.5,20.9-20.2l17.9-3.6c5-1,11.6-2.4,15-6.7,7.1-9.2,12.5-20.3,14-31.9,1.7-12.6,5.9-23.5,14.5-32.9s5.3-12.7,2.3-18.9l-5.5-11.6,2.1-.8,5.7,12.3c3.4,7.3,1.7,15.2-3.4,21.1s-11.1,15.3-12.2,24.7-4.8,22-10.5,32.1c-4.1,7.4-9.9,12.7-18.6,14.3l-19.6,3.8c-11.1,2.1-18.7,10.4-21.1,21.3l-2.7,19.3c-1.7,12.1-4.3,21.6-16,22.1l-11.5.5c-9.7,5.2-19.1,9.6-29.8,11.9s-18,6.8-23.8,15l-12.7,18.3c-2.2,3.2-3.2,6.5-.8,10.3,6.4,10,20,13.6,32,12.5s12.6-4.1,17.3-9.3l12.3-13.5c10.9-12,23-23.3,38.5-17.3,6.6,2.6,13.5,3.1,20.4,1.7l23.5-4.6c16.8-3.3,16.4-14.9,17.6-30.2s4.4-11.6,9.9-12c8.1-.6,16.1.4,24,1.3s6.9,3,7.9,6.7c2.6,9.1,6,17.6,10.5,25.9,3.5,6.3,4.7,13.4,2,20.3l-5.2,13.7c-1.7,4.4-2.7,9.1-1.9,13.7s6,9.2,11.9,9.1c11.8-.2,22.9,2.5,33.3,7.8s14.6.8,18.5-6c6.5-11.3,6.8-25.5,14-29.8s17-2.4,23.9,2.9l9.9,7.6c7.5,5.7,17.1,7,25.8,3.5l9.2-3.6c4.5-1.8,6.9-6,8.4-10.5,3.8-11,10.3-20.4,19.2-27.8,2-4.3.4-8.4-3.3-11.3-4.5-2.5-9.3-4.2-14.3-6l-16.2-5.8c-8.6-3.1-17.8-4.9-26.7-2.4l-24.9,7c-6.3,1.8-11.5,5.9-15.7,10.8-3.5,4.1-8.6,5.9-14,4.3-13.1-3.8-24.7-10.7-35.7-18.8-6.8-5-13.7-8.1-21.8-10.2s-7-4.3-6.7-7.8c1-11.4,5-24.2,15-29.2,11.3-5.7,20.7-13.1,29.3-22.3,3.9-4.2,7.9-8.1,9.8-13.7,3.2-9.6-4.2-16.7-3.8-27.5s1.7-12.3,3.8-18.1Z"/>
  <path d="M911.4,529.9l12.8,14.1c6.6,5.5,12.9,10.8,20.3,15.5s8.3,1.3,11.7-.4c10.3-5.3,14.6-14.3,27.4-14s15.7,2.1,22.8,5.4c6.8,3.1,11.6,8.2,13.8,15.4s.3,12-5,15.9-8.8,4.5-13.4,6.1c-11.4,4-18.9,12.9-22,24.3-6,22.1-7.7,42.3,4.2,62.7s4.9,6.3,8.7,7.9l11.7,5c5.3,2.2,10.4,6,13.1,11.1,3,5.7,2.5,11.9,2.6,18.1.4,14.2-.8,27.6-4.1,41.3s-1,7.5-.9,11l.6,16c.3,8.6-4,16.4-11.1,21-6.2,4.1-11.1,8.8-16.4,13.9s-10.4,7.9-16.8,7.9-12.5-3.8-17.1-8.3-11.9-9.4-19.5-11.6l-18.7-3.4c-10.9-2-21.3-6.5-27.6-15.6l-10.9-15.7c-8.4-12.1-4.3-26.8,7.4-35.9,4-3.1,8.6-4.4,13.3-2.2l12.9,6.1c12,6.7,25.4,9.4,38.7,7.4,13.5-2.1,22.1-11.4,23.2-24.9.7-8.8,5.5-24.7-2.2-30.8-12.5-9.9-33.8-.8-41.8-40.2s-5-11.1-10.5-14.5c-11.5-7.3-25.1-21.6-17.6-33.3l10.7-16.7c4.7-7.3-7.8-17.3-16.4-22.3s-13.1-9.3-17.9-16.3l-13.3-19.3c1.1-.2,3,.3,3.4,1l11.1,16.4c4.5,6.7,9.8,11.7,16.8,15.8s12.6,8.3,16.8,14.1,3.1,9,0,13.6l-7.9,11.8c-10.2,15.3,5.9,26.8,19.1,36.4s3,36.5,32.7,45.4l9.4,2.8c10.4,3.1,13.1,13.5,11.4,24.2l-3,18.4c-3.6,22-35.8,26.6-57.3,16.2l-16.4-7.9c-2.4-1.2-6.5-2.8-9.4-1.6-11.5,4.5-19,18.6-13.9,30.4s8.9,14.8,14.1,21.4c5.6,7.1,13.4,12.1,22.2,13.4l13.3,1.9c12.3,1.8,22.4,7.5,31.1,16,7.8,7.6,18.9,7.9,27,.4,6.6-6.2,13-12,20.4-17.3,13.6-9.7,5.8-26.8,8.4-43.9l4.3-28.5c1.4-8.9.9-17.8-.9-26.7-1.2-5.6-4.7-9.9-9.8-12.2l-14.1-6.3c-3.5-1.6-7.1-3.4-9.3-6.7-8-12.1-11.7-26.1-10.9-40.8s3-22.9,7.4-33.6c4.3-10.2,13.2-16.4,23.7-19.8s11.6-3.9,13.7-9.6-2.1-17.1-9.2-21.1c-7.8-4.4-16.1-6.4-24.9-6.7-12.3-.4-16.4,9-26.8,13.8-4,1.9-9.5,2.7-13.4.2-9-5.9-17.2-12.4-24.7-20l-8.9-10.4,1.7-1.1Z"/>
  <path d="M1279.8,1223.2c-17.1,4.2-24.7,20.2-33.6,18.7-15.6-2.6-23.3-19.6-25.8-34.8-1.9-11.9,3.4-23.1,12.4-30.7l12.8-10.7c7.3-6.1,11.9-14.1,15.7-22.9,4.8-11,13.9-14.5,24.4-18.9,4.9-2.1,7.3-6.2,7-11.7-.7-12.4-.3-24.5,2.1-36.9l9.6-36.7c1.3-4.9,4.5-9.7,8-13.3,11.3-11.8,26.7-8.2,35.3-11.1,13.8-4.8,26.8-13,26.2-27.9-.5-10.7,4.8-19.9,15.1-23.5,13.7-4.8,17.2-15.8,34.9-15.3s16.6-2.5,24.4-5.8,20.3-.9,27,8.3c4.3,5.9,3.4,13.4-1.7,18.7-11.1,11.5-25.1,9.9-33.6,16.5s-6.2,6.9-6.2,10.9l-.2,15.9c-.1,7.9-6.7,13-14.3,13.7l-18.3,1.7c-4.5.4-8.4,1.7-11.2,5.5-9.1,12.1-3.4,23.6,1.8,35.8s2.7,15.2-1.8,21.6-4.3,14.6-.1,21.2,4.6,15.3,2.2,23.4c-6.2,21.1-13.5,41.3-24.9,60-2.9,4.7-6.4,9.3-11.5,11.4s-13.1,3.1-19.5,1.6l-22.4-5.1c-5.8,2.4-12,5.7-16.4,10.3-4.8,5-10,8.3-17.1,10.1ZM1279.8,1220.9c6.3-1.6,10.9-4.6,15.1-8.9,4.9-5.1,11.3-8.5,17.9-11.5l16.3,4.1c5.7,1.4,11.8,2,17.5,1.6s13.3-4.3,17.3-10.9c11.6-19.4,19.6-40.3,25.8-62.1,2.2-7.8,1.4-15.3-2.9-22-4.6-7.2-3.5-16.1,1.3-22.9s3.6-12.8,1.1-19l-5-12.4c-3.5-8.7-1.8-18.2,3.8-25.6,2.9-3.8,7.1-5.4,11.7-5.9l17-1.7c7.1.3,14.3-3.1,14.3-11v-11.1c-.9-10.4,5.1-19.1,15.3-22.2s14.6-4,21-8.4c4.5-3,8.6-7.7,8.2-13.3s-5.5-10.9-10.9-13.9-10.8-2.1-16.1.2c-9.3,4-18.5,6.2-28.8,6.1-5.4,0-10.7,2.3-14.7,5.6s-10.5,7.5-16.9,9.8c-7.6,2.8-12.5,10.2-12.1,18.6s-4.6,20-14.1,25.8c-8.7,5.3-17.5,8.3-27.9,8.6-12.4.3-23.8,7.8-27.1,19.6l-8.3,29.6c-4.1,14.7-4.5,29.4-3.6,44.7s-23.4,12.3-31.4,31.1-8.6,17.2-16,23.5l-11.1,9.5c-9.7,6.7-16.1,18.4-14,30.5,1.2,6.6,3.7,13.1,6.4,19,2.4,5.3,6.6,8.7,11.1,11.6,13.7,8.9,17.4-10.9,39.8-16.6Z"/>
  <path d="M452.5,1525.9c-8.1,4.7-16.6,6.1-25.4,3.2-18.5-6.1-32.4,1.4-37.4-14.5s-3.7-24-.8-36l3.6-14.7c4.4-18.1,13.5-33.8,27.3-46.4,4.6-4.2,9.1-9.5,15.1-11.3,22-6.6,17.7-18.5,28.9-27.3s10.4-3.5,16.2-2.3c9.3,2,17.8,6.4,22.2,15.2,3,6,1.6,12.7-1.8,18.2l-13,21.2c-5.5,9-13.6,15.1-22.3,20.9-5.1,3.3-6.4,9.4-3.4,14.3,5.4,9,6.1,18.9,6.6,29.1s-4.5,23.8-15.8,30.4ZM450.5,1524.5c16.1-9.4,16.4-22,14.8-39.1s-2.6-12.7-5.8-18.4c-3.2-5.7-1.9-12.6,4.1-16.5,9-6,17.3-12.5,23.2-22.1l11.5-18.9c5.3-8.7,3.9-18.9-5.1-25-6-4-14.2-6.8-22-6.3-6.2.5-11,6.2-13.2,11.3-4.4,10.2-12.3,16-22.6,18.8-4.9,1.3-8.8,6-12.5,9.3-15.9,13.9-25.6,31.9-29.6,52.5-1.5,7.6-4,14.7-4.1,22.4-.2,13.5,1.2,30.6,14.6,30.9,7.6.2,15.3.9,22.6,3.2s16.3,2.4,24.1-2.1Z"/>
  <path d="M1488.8,1248.7c-17.7,12.9-9.7,23.9-27.4,35.6-4.5,3-10.7.5-12.2-4.8s-1.2-16,2.7-22.7c6.9-11.8,8.2-24.8,3.9-37.8-1.4-4.1-2.2-9.4-.3-13.4,3.8-8,15-14.9,22.8-9.6,2.2,1.5,3.7,4.7,4.2,7.9,2,14,11.6,22.9,12.5,33.7.4,4.3-2.8,8.7-6.1,11.1ZM1472.7,1267.3c2.6-8.9,7.5-14.9,14.6-20.1,3.9-2.8,7.2-7.9,5.2-12.4l-7.4-16c-2.4-5.2-4.3-10.5-5.1-16.1s-3.6-6.2-7.6-6.3-5.5,1.1-8.1,2.7c-6.4,3.8-9.1,10.4-6.7,17.7,4.9,14.5,3.6,29-4.2,42.1-4.3,7.2-4.4,23,2,24.2s5.4-.3,7.2-2c4.1-3.9,8.4-7.9,10.1-13.7Z"/>
  <path d="M823.8,1055.8c-.6,2-2.9,3.9-4.7,4s-4.8-1.3-5.7-2.9l-17.9-31.3c-2.8-4.9-4.1-10.8-3.1-16.3s5.2-9.5,9.8-12.4c7.4-4.7,16.1-2.1,20.8,5.2,3.1,4.7,6.4,9.4,6.6,15.4.5,13.2-1.7,25.8-5.7,38.3ZM827.4,1017.8c-.1-5.3-3.4-9.8-6.1-14.1s-8.9-8.1-14.9-6.1-9.3,5.1-11.2,9.8-.5,11.3,1.9,16.7l17.8,31.2,3,2.2c5.4,3.9,9.7-26.9,9.5-39.7Z"/>
  <path d="M1175.9,770.3c-1.5,2.1-4.2,4.2-6.7,4s-4.6-2.7-6-5.7c-2.4-5-2.2-11.8,3.4-14.4s6.2,2.3,8.3,4.3c3.5,3.5,4.5,7,1.1,11.7ZM1175.3,763l-4.1-5.2c-.6-.8-2.7-1.7-3.5-1.5s-2.5,1.4-2.9,2.2c-2.4,5.4,1.2,13.9,5,13.6,3.7-.3,7.1-7.1,5.5-9.2Z"/>
  <path d="M580.6,1411.5c-1.6,5.6-6.2,11.7-9.6,11.1-7.4-1.2-23.7-35-5.8-47.9,8.1-1.4,15.2,3.8,16.5,12.1s1.2,16.6-1.1,24.7ZM579.2,1386.1c-1.3-6.3-6.5-10.3-12.9-9.4-4.1,3.1-6.2,7.5-7,12.8-.3,11,3.2,21.3,10,29.9.5.4,2.7,1,3.3.6,7.9-5.6,8.7-22.8,6.5-33.9Z"/>
  <path d="M1143.7,1227.1c-19,5.4-27.5-12.9-36.7-18s-12.8-3.5-19.5-3.1l-20.4,1.3c-4.1.3-6.2-3.9-5.5-7.7,2-11.2,7.6-20.7,14.6-29.4,8.4-10.4,10.9-23.2,6.9-35.9-2.3-7.2-4.3-14.8-3.6-22.3s1.2-15.8-.3-24c-2.8-15.3-1.6-31.6,9.5-42.8s12.1-15.6,15.4-25.6c4.9-14.8,14.9-15.4,28.3-15.7s12.7-1.8,18.8-4.1c4.5-1.7,9.1-2.1,13.7-2.2,7.7-.3,13.2,3.4,16,10.1,3.3,8.1.4,14.8-6,20.7l-14.9,13.7c-5.8,5.3-11.6,9.9-18.7,13.2s-13.1,11.2-13.8,20.1c-.5,5.7-1.3,12.2,1.9,17.4,1.8,2.6,7.3,2.7,10.5,2.5,13.7-.8,26.1,6.4,30.4,19.5,2.9,8.8.3,17.7-5,25.2-5.6,8.1-10.6,16.8-10.7,27v37.2c-.2,9.9-1,20.1-10.9,22.9ZM1121.4,1219.2c9.6,9.1,25.3,7.9,28.1.8s3.2-9.8,3.1-15.1l-.2-27.3c-2.6-31,14.6-37.3,16.5-51.9s-11.7-29.2-27.5-28.1c-6.8.5-14.2-.8-15.5-6.3-3.5-15.2-.2-30.8,14.2-37.9,7.1-3.5,12.9-7.8,18.8-13.2l15.7-14.5c5-4.6,6.7-10,4.6-16.3s-7.8-10.2-15.2-9.6c-4.2.3-8.6.8-12.7,2.4-18.7,7-30.9,1.3-38.9,8.3s-5.4,6.9-6.5,10.7c-3.1,10.1-8.5,18-15.6,25.5s-11.2,22.6-9.6,35.5,2.7,14.1,1.8,21c-1.4,10.6-.7,19.9,2.6,30,4.3,12.7,2.1,26-6,36.8-7.3,9.7-16,22-14.9,33.9,3.2,1.5,6.4,1.6,9.7,1.3l16.8-1.5c6.8-.6,14.9.4,19.8,5.1l11.1,10.5Z"/>
</svg>